<svg width="243.239990234375px" height="304.439990234375px" xmlns="http://www.w3.org/2000/svg" viewBox="128.3800048828125 -77.2199951171875 243.239990234375 304.439990234375" style="background: rgb(7, 218, 119) none repeat scroll 0% 0%;" preserveAspectRatio="xMidYMid"><defs><linearGradient id="editing-gradient-gradient" x1="0" x2="1" y1="0.5" y2="0.5" gradientUnits="objectBoundingBox"><stop offset="0" stop-color="#ffffff"/><stop offset="1" stop-color="#ffffff"/></linearGradient></defs><g><g transform="translate(177.36293517798185, 125.32499313354492)"><path d="M27.38 0.59L27.38 0.59Q23.01 0.59 21.12-1.36L21.12-1.36L21.12-1.36Q19.23-3.30 19.23-8.73L19.23-8.73L19.23-8.73Q19.23-12.39 20.00-18.11L20.00-18.11L20.00-18.11Q20.77-23.84 22.54-33.87L22.54-33.87L22.54-33.87Q25.61-52.39 27.38-65.96L27.38-65.96L27.38-65.96Q28.44-74.46 28.44-80.12L28.44-80.12L28.44-80.12Q28.44-85.43 24.54-85.43L24.54-85.43L24.54-85.43Q21.48-85.43 17.17-82.31L17.17-82.31L17.17-82.31Q12.86-79.18 7.67-72.33L7.67-72.33L7.67-72.33Q6.02-70.09 4.01-70.09L4.01-70.09L4.01-70.09Q2.36-70.09 1.12-71.69L1.12-71.69L1.12-71.69Q-0.12-73.28-0.12-75.28L-0.12-75.28L-0.12-75.28Q-0.12-77.17 0.65-79.12L0.65-79.12L0.65-79.12Q1.42-81.07 3.19-83.54L3.19-83.54L3.19-83.54Q8.85-91.45 15.81-95.76L15.81-95.76L15.81-95.76Q22.77-100.06 29.74-100.06L29.74-100.06L29.74-100.06Q36.23-100.06 39.71-95.93L39.71-95.93L39.71-95.93Q43.19-91.80 43.19-83.90L43.19-83.90L43.19-83.90Q43.19-80.71 42.60-76.41L42.60-76.41L42.60-76.41Q42.01-72.10 41.54-69.38L41.54-69.38L41.54-69.38Q41.06-66.67 40.83-65.61L40.83-65.61L40.83-65.61Q47.55-84.84 55.93-92.45L55.93-92.45L55.93-92.45Q64.31-100.06 74.34-100.06L74.34-100.06L74.34-100.06Q82.01-100.06 86.44-94.64L86.44-94.64L86.44-94.64Q90.86-89.21 90.86-79.30L90.86-79.30L90.86-79.30Q90.86-75.40 89.80-69.62L89.80-69.62L89.80-69.62Q95.70-85.90 103.60-92.98L103.60-92.98L103.60-92.98Q111.51-100.06 121.78-100.06L121.78-100.06L121.78-100.06Q130.04-100.06 134.46-94.75L134.46-94.75L134.46-94.75Q138.89-89.44 138.89-79.89L138.89-79.89L138.89-79.89Q138.89-74.69 137.35-67.26L137.35-67.26L130.15-33.51L130.15-33.51Q128.97-27.61 128.97-23.36L128.97-23.36L128.97-23.36Q128.97-18.41 131.28-15.93L131.28-15.93L131.28-15.93Q133.58-13.45 137.71-13.45L137.71-13.45L137.71-13.45Q141.60-13.45 145.32-16.05L145.32-16.05L145.32-16.05Q149.03-18.64 154.11-24.66L154.11-24.66L154.11-24.66Q155.52-26.31 157.29-26.31L157.29-26.31L157.29-26.31Q158.83-26.31 159.71-24.90L159.71-24.90L159.71-24.90Q160.60-23.48 160.60-21.00L160.60-21.00L160.60-21.00Q160.60-16.40 158.36-13.69L158.36-13.69L158.36-13.69Q152.22-6.25 146.20-2.83L146.20-2.83L146.20-2.83Q140.18 0.59 133.58 0.59L133.58 0.59L133.58 0.59Q123.55 0.59 117.88-5.37L117.88-5.37L117.88-5.37Q112.22-11.33 112.22-21.36L112.22-21.36L112.22-21.36Q112.22-28.32 115.05-41.54L115.05-41.54L119.77-63.13L119.77-63.13Q120.01-64.19 120.60-66.91L120.60-66.91L120.60-66.91Q121.19-69.62 121.54-72.04L121.54-72.04L121.54-72.04Q121.89-74.46 121.89-76.82L121.89-76.82L121.89-76.82Q121.89-80.95 120.30-83.01L120.30-83.01L120.30-83.01Q118.71-85.08 115.76-85.08L115.76-85.08L115.76-85.08Q110.21-85.08 104.14-77.94L104.14-77.94L104.14-77.94Q98.06-70.80 92.57-54.28L92.57-54.28L92.57-54.28Q87.08-37.76 83.66-11.33L83.66-11.33L83.66-11.33Q82.84-4.25 80.77-1.83L80.77-1.83L80.77-1.83Q78.71 0.59 74.10 0.59L74.10 0.59L74.10 0.59Q70.09 0.59 68.26-1.30L68.26-1.30L68.26-1.30Q66.43-3.19 66.43-8.38L66.43-8.38L66.43-8.38Q66.43-13.22 67.73-21.06L67.73-21.06L67.73-21.06Q69.03-28.91 71.04-39.53L71.04-39.53L71.04-39.53Q76.46-68.09 76.46-76.35L76.46-76.35L76.46-76.35Q76.46-80.83 74.75-82.95L74.75-82.95L74.75-82.95Q73.04-85.08 69.62-85.08L69.62-85.08L69.62-85.08Q63.84-85.08 57.70-78.53L57.70-78.53L57.70-78.53Q51.57-71.98 45.73-55.28L45.73-55.28L45.73-55.28Q39.88-38.59 35.99-10.15L35.99-10.15L35.99-10.15Q35.16-4.13 33.57-1.77L33.57-1.77L33.57-1.77Q31.98 0.59 27.38 0.59L27.38 0.59Z" fill="url(#editing-gradient-gradient)"/></g></g><style>text {
  font-size: 64px;
  font-family: Arial Black;
  dominant-baseline: central;
  text-anchor: middle;
}</style></svg>