<svg width="371.79998779296875px" height="176.03999023437498px" xmlns="http://www.w3.org/2000/svg" viewBox="64.10000610351562 -13.019995117187491 371.79998779296875 176.03999023437498" style="background: rgba(0, 0, 0, 0) none repeat scroll 0% 0%;" preserveAspectRatio="xMidYMid"><defs><linearGradient id="editing-gradient-gradient" x1="0" x2="1" y1="0.5" y2="0.5" gradientUnits="objectBoundingBox"><stop offset="0" stop-color="#00ffff"></stop><stop offset="1" stop-color="#ff00ff"></stop></linearGradient></defs><g><g transform="translate(117.07882934436202, 105.23999977111816)"><path d="M14.85 0.32L14.85 0.32Q12.48 0.32 11.46-0.74L11.46-0.74L11.46-0.74Q10.43-1.79 10.43-4.74L10.43-4.74L10.43-4.74Q10.43-6.72 10.85-9.82L10.85-9.82L10.85-9.82Q11.26-12.93 12.22-18.37L12.22-18.37L12.22-18.37Q13.89-28.42 14.85-35.78L14.85-35.78L14.85-35.78Q15.42-40.38 15.42-43.46L15.42-43.46L15.42-43.46Q15.42-46.34 13.31-46.34L13.31-46.34L13.31-46.34Q11.65-46.34 9.31-44.64L9.31-44.64L9.31-44.64Q6.98-42.94 4.16-39.23L4.16-39.23L4.16-39.23Q3.26-38.02 2.18-38.02L2.18-38.02L2.18-38.02Q1.28-38.02 0.61-38.88L0.61-38.88L0.61-38.88Q-0.06-39.74-0.06-40.83L-0.06-40.83L-0.06-40.83Q-0.06-41.86 0.35-42.91L0.35-42.91L0.35-42.91Q0.77-43.97 1.73-45.31L1.73-45.31L1.73-45.31Q4.80-49.60 8.58-51.94L8.58-51.94L8.58-51.94Q12.35-54.27 16.13-54.27L16.13-54.27L16.13-54.27Q19.65-54.27 21.54-52.03L21.54-52.03L21.54-52.03Q23.42-49.79 23.42-45.50L23.42-45.50L23.42-45.50Q23.42-43.78 23.10-41.44L23.10-41.44L23.10-41.44Q22.78-39.10 22.53-37.63L22.53-37.63L22.53-37.63Q22.27-36.16 22.14-35.58L22.14-35.58L22.14-35.58Q25.79-46.02 30.34-50.14L30.34-50.14L30.34-50.14Q34.88-54.27 40.32-54.27L40.32-54.27L40.32-54.27Q44.48-54.27 46.88-51.33L46.88-51.33L46.88-51.33Q49.28-48.38 49.28-43.01L49.28-43.01L49.28-43.01Q49.28-40.90 48.70-37.76L48.70-37.76L48.70-37.76Q51.90-46.59 56.19-50.43L56.19-50.43L56.19-50.43Q60.48-54.27 66.05-54.27L66.05-54.27L66.05-54.27Q70.53-54.27 72.93-51.39L72.93-51.39L72.93-51.39Q75.33-48.51 75.33-43.33L75.33-43.33L75.33-43.33Q75.33-40.51 74.50-36.48L74.50-36.48L70.59-18.18L70.59-18.18Q69.95-14.98 69.95-12.67L69.95-12.67L69.95-12.67Q69.95-9.98 71.20-8.64L71.20-8.64L71.20-8.64Q72.45-7.30 74.69-7.30L74.69-7.30L74.69-7.30Q76.80-7.30 78.82-8.70L78.82-8.70L78.82-8.70Q80.83-10.11 83.58-13.38L83.58-13.38L83.58-13.38Q84.35-14.27 85.31-14.27L85.31-14.27L85.31-14.27Q86.14-14.27 86.62-13.50L86.62-13.50L86.62-13.50Q87.10-12.74 87.10-11.39L87.10-11.39L87.10-11.39Q87.10-8.90 85.89-7.42L85.89-7.42L85.89-7.42Q82.56-3.39 79.30-1.54L79.30-1.54L79.30-1.54Q76.03 0.32 72.45 0.32L72.45 0.32L72.45 0.32Q67.01 0.32 63.94-2.91L63.94-2.91L63.94-2.91Q60.86-6.14 60.86-11.58L60.86-11.58L60.86-11.58Q60.86-15.36 62.40-22.53L62.40-22.53L64.96-34.24L64.96-34.24Q65.09-34.82 65.41-36.29L65.41-36.29L65.41-36.29Q65.73-37.76 65.92-39.07L65.92-39.07L65.92-39.07Q66.11-40.38 66.11-41.66L66.11-41.66L66.11-41.66Q66.11-43.90 65.25-45.02L65.25-45.02L65.25-45.02Q64.38-46.14 62.78-46.14L62.78-46.14L62.78-46.14Q59.78-46.14 56.48-42.27L56.48-42.27L56.48-42.27Q53.18-38.40 50.21-29.44L50.21-29.44L50.21-29.44Q47.23-20.48 45.38-6.14L45.38-6.14L45.38-6.14Q44.93-2.30 43.81-0.99L43.81-0.99L43.81-0.99Q42.69 0.32 40.19 0.32L40.19 0.32L40.19 0.32Q38.02 0.32 37.02-0.70L37.02-0.70L37.02-0.70Q36.03-1.73 36.03-4.54L36.03-4.54L36.03-4.54Q36.03-7.17 36.74-11.42L36.74-11.42L36.74-11.42Q37.44-15.68 38.53-21.44L38.53-21.44L38.53-21.44Q41.47-36.93 41.47-41.41L41.47-41.41L41.47-41.41Q41.47-43.84 40.54-44.99L40.54-44.99L40.54-44.99Q39.62-46.14 37.76-46.14L37.76-46.14L37.76-46.14Q34.62-46.14 31.30-42.59L31.30-42.59L31.30-42.59Q27.97-39.04 24.80-29.98L24.80-29.98L24.80-29.98Q21.63-20.93 19.52-5.50L19.52-5.50L19.52-5.50Q19.07-2.24 18.21-0.96L18.21-0.96L18.21-0.96Q17.34 0.32 14.85 0.32L14.85 0.32ZM114.56-19.65L114.56-19.65Q115.39-19.65 115.84-18.82L115.84-18.82L115.84-18.82Q116.29-17.98 116.29-16.70L116.29-16.70L116.29-16.70Q116.29-13.63 114.43-13.06L114.43-13.06L114.43-13.06Q110.59-11.71 105.98-11.52L105.98-11.52L105.98-11.52Q104.77-6.14 101.18-2.91L101.18-2.91L101.18-2.91Q97.60 0.32 93.06 0.32L93.06 0.32L93.06 0.32Q89.22 0.32 86.50-1.54L86.50-1.54L86.50-1.54Q83.78-3.39 82.37-6.46L82.37-6.46L82.37-6.46Q80.96-9.54 80.96-13.12L80.96-13.12L80.96-13.12Q80.96-17.98 82.82-21.79L82.82-21.79L82.82-21.79Q84.67-25.60 87.94-27.74L87.94-27.74L87.94-27.74Q91.20-29.89 95.17-29.89L95.17-29.89L95.17-29.89Q100.03-29.89 103.01-26.53L103.01-26.53L103.01-26.53Q105.98-23.17 106.50-18.24L106.50-18.24L106.50-18.24Q109.50-18.43 113.66-19.52L113.66-19.52L113.66-19.52Q114.18-19.65 114.56-19.65L114.56-19.65ZM93.57-6.46L93.57-6.46Q95.62-6.46 97.12-8.13L97.12-8.13L97.12-8.13Q98.62-9.79 99.14-12.93L99.14-12.93L99.14-12.93Q97.15-14.27 96.10-16.45L96.10-16.45L96.10-16.45Q95.04-18.62 95.04-21.06L95.04-21.06L95.04-21.06Q95.04-22.08 95.23-23.10L95.23-23.10L94.91-23.10L94.91-23.10Q92.35-23.10 90.66-20.64L90.66-20.64L90.66-20.64Q88.96-18.18 88.96-13.70L88.96-13.70L88.96-13.70Q88.96-10.18 90.34-8.32L90.34-8.32L90.34-8.32Q91.71-6.46 93.57-6.46L93.57-6.46ZM147.14-14.27L147.14-14.27Q147.97-14.27 148.45-13.50L148.45-13.50L148.45-13.50Q148.93-12.74 148.93-11.39L148.93-11.39L148.93-11.39Q148.93-8.83 147.71-7.42L147.71-7.42L147.71-7.42Q145.09-4.22 141.95-1.95L141.95-1.95L141.95-1.95Q138.82 0.32 135.74 0.32L135.74 0.32L135.74 0.32Q130.88 0.32 128.32-5.38L128.32-5.38L128.32-5.38Q125.63-1.98 123.62-0.83L123.62-0.83L123.62-0.83Q121.60 0.32 118.91 0.32L118.91 0.32L118.91 0.32Q115.01 0.32 112.48-2.59L112.48-2.59L112.48-2.59Q109.95-5.50 109.95-10.18L109.95-10.18L109.95-10.18Q109.95-15.30 112.13-19.68L112.13-19.68L112.13-19.68Q114.30-24.06 118.11-26.85L118.11-26.85L118.11-26.85Q121.92-29.63 126.66-30.14L126.66-30.14L126.66-30.14Q127.87-42.56 131.30-51.36L131.30-51.36L131.30-51.36Q134.72-60.16 140.29-60.16L140.29-60.16L140.29-60.16Q143.04-60.16 144.86-57.66L144.86-57.66L144.86-57.66Q146.69-55.17 146.69-50.11L146.69-50.11L146.69-50.11Q146.69-42.94 143.17-33.34L143.17-33.34L143.17-33.34Q139.65-23.74 133.76-13.63L133.76-13.63L133.76-13.63Q134.02-9.92 134.88-8.32L134.88-8.32L134.88-8.32Q135.74-6.72 137.09-6.72L137.09-6.72L137.09-6.72Q138.82-6.72 140.61-8.26L140.61-8.26L140.61-8.26Q142.40-9.79 145.41-13.38L145.41-13.38L145.41-13.38Q146.18-14.27 147.14-14.27L147.14-14.27ZM139.58-53.89L139.58-53.89Q138.37-53.89 137.15-49.57L137.15-49.57L137.15-49.57Q135.94-45.25 135.07-38.27L135.07-38.27L135.07-38.27Q134.21-31.30 133.82-23.68L133.82-23.68L133.82-23.68Q140.99-39.30 140.99-48.77L140.99-48.77L140.99-48.77Q140.99-51.20 140.58-52.54L140.58-52.54L140.58-52.54Q140.16-53.89 139.58-53.89L139.58-53.89ZM121.15-6.14L121.15-6.14Q122.37-6.14 123.58-7.14L123.58-7.14L123.58-7.14Q124.80-8.13 126.66-10.82L126.66-10.82L126.66-10.82Q126.02-14.27 126.02-18.56L126.02-18.56L126.02-18.56Q126.02-20.10 126.14-23.55L126.14-23.55L126.14-23.55Q122.62-22.46 120.29-18.85L120.29-18.85L120.29-18.85Q117.95-15.23 117.95-10.82L117.95-10.82L117.95-10.82Q117.95-6.14 121.15-6.14L121.15-6.14ZM172.29-14.27L172.29-14.27Q173.12-14.27 173.60-13.50L173.60-13.50L173.60-13.50Q174.08-12.74 174.08-11.39L174.08-11.39L174.08-11.39Q174.08-8.83 172.86-7.42L172.86-7.42L172.86-7.42Q170.50-4.54 166.18-2.11L166.18-2.11L166.18-2.11Q161.86 0.32 156.93 0.32L156.93 0.32L156.93 0.32Q150.21 0.32 146.50-3.33L146.50-3.33L146.50-3.33Q142.78-6.98 142.78-13.31L142.78-13.31L142.78-13.31Q142.78-17.73 144.64-21.54L144.64-21.54L144.64-21.54Q146.50-25.34 149.79-27.58L149.79-27.58L149.79-27.58Q153.09-29.82 157.25-29.82L157.25-29.82L157.25-29.82Q160.96-29.82 163.20-27.62L163.20-27.62L163.20-27.62Q165.44-25.41 165.44-21.63L165.44-21.63L165.44-21.63Q165.44-17.22 162.27-14.05L162.27-14.05L162.27-14.05Q159.10-10.88 151.55-9.02L151.55-9.02L151.55-9.02Q153.15-6.08 157.63-6.08L157.63-6.08L157.63-6.08Q160.51-6.08 164.19-8.10L164.19-8.10L164.19-8.10Q167.87-10.11 170.56-13.38L170.56-13.38L170.56-13.38Q171.33-14.27 172.29-14.27L172.29-14.27ZM156.16-23.55L156.16-23.55Q153.79-23.55 152.16-20.80L152.16-20.80L152.16-20.80Q150.53-18.05 150.53-14.14L150.53-14.14L150.53-14.02L150.53-14.02Q154.30-14.91 156.48-16.70L156.48-16.70L156.48-16.70Q158.66-18.50 158.66-20.86L158.66-20.86L158.66-20.86Q158.66-22.08 157.98-22.82L157.98-22.82L157.98-22.82Q157.31-23.55 156.16-23.55L156.16-23.55ZM173.44 0.32L173.44 0.32Q171.01 0.32 170.02-2.24L170.02-2.24L170.02-2.24Q169.02-4.80 169.02-10.43L169.02-10.43L169.02-10.43Q169.02-18.75 171.39-26.24L171.39-26.24L171.39-26.24Q171.97-28.10 173.28-28.96L173.28-28.96L173.28-28.96Q174.59-29.82 176.96-29.82L176.96-29.82L176.96-29.82Q178.24-29.82 178.75-29.50L178.75-29.50L178.75-29.50Q179.26-29.18 179.26-28.29L179.26-28.29L179.26-28.29Q179.26-27.26 178.30-23.68L178.30-23.68L178.30-23.68Q177.66-21.12 177.28-19.20L177.28-19.20L177.28-19.20Q176.90-17.28 176.64-14.46L176.64-14.46L176.64-14.46Q178.75-19.97 181.38-23.42L181.38-23.42L181.38-23.42Q184-26.88 186.53-28.35L186.53-28.35L186.53-28.35Q189.06-29.82 191.17-29.82L191.17-29.82L191.17-29.82Q195.33-29.82 195.33-25.66L195.33-25.66L195.33-25.66Q195.33-24.83 194.75-21.63L194.75-21.63L194.75-21.63Q194.24-19.07 194.24-18.43L194.24-18.43L194.24-18.43Q194.24-16.19 195.84-16.19L195.84-16.19L195.84-16.19Q197.63-16.19 200.45-19.01L200.45-19.01L200.45-19.01Q201.28-19.84 202.18-19.84L202.18-19.84L202.18-19.84Q203.01-19.84 203.49-19.10L203.49-19.10L203.49-19.10Q203.97-18.37 203.97-17.15L203.97-17.15L203.97-17.15Q203.97-14.78 202.69-13.44L202.69-13.44L202.69-13.44Q200.90-11.58 198.50-10.27L198.50-10.27L198.50-10.27Q196.10-8.96 193.41-8.96L193.41-8.96L193.41-8.96Q190.02-8.96 188.26-10.69L188.26-10.69L188.26-10.69Q186.50-12.42 186.50-15.36L186.50-15.36L186.50-15.36Q186.50-16.32 186.69-17.28L186.69-17.28L186.69-17.28Q186.82-18.56 186.82-19.01L186.82-19.01L186.82-19.01Q186.82-20.03 186.11-20.03L186.11-20.03L186.11-20.03Q185.15-20.03 183.58-17.89L183.58-17.89L183.58-17.89Q182.02-15.74 180.48-12.22L180.48-12.22L180.48-12.22Q178.94-8.70 177.98-4.80L177.98-4.80L177.98-4.80Q177.28-1.79 176.35-0.74L176.35-0.74L176.35-0.74Q175.42 0.32 173.44 0.32L173.44 0.32ZM202.56 0.32L202.56 0.32Q200.13 0.32 199.14-2.24L199.14-2.24L199.14-2.24Q198.14-4.80 198.14-10.43L198.14-10.43L198.14-10.43Q198.14-18.75 200.51-26.24L200.51-26.24L200.51-26.24Q201.09-28.10 202.40-28.96L202.40-28.96L202.40-28.96Q203.71-29.82 206.08-29.82L206.08-29.82L206.08-29.82Q207.36-29.82 207.87-29.50L207.87-29.50L207.87-29.50Q208.38-29.18 208.38-28.29L208.38-28.29L208.38-28.29Q208.38-27.26 207.42-23.68L207.42-23.68L207.42-23.68Q206.78-21.12 206.40-19.20L206.40-19.20L206.40-19.20Q206.02-17.28 205.76-14.46L205.76-14.46L205.76-14.46Q207.87-19.97 210.50-23.42L210.50-23.42L210.50-23.42Q213.12-26.88 215.65-28.35L215.65-28.35L215.65-28.35Q218.18-29.82 220.29-29.82L220.29-29.82L220.29-29.82Q224.45-29.82 224.45-25.66L224.45-25.66L224.45-25.66Q224.45-23.17 223.04-16.64L223.04-16.64L223.04-16.64Q221.82-11.07 221.82-9.28L221.82-9.28L221.82-9.28Q221.82-6.72 223.68-6.72L223.68-6.72L223.68-6.72Q224.96-6.72 226.72-8.29L226.72-8.29L226.72-8.29Q228.48-9.86 231.42-13.38L231.42-13.38L231.42-13.38Q232.19-14.27 233.15-14.27L233.15-14.27L233.15-14.27Q233.98-14.27 234.46-13.50L234.46-13.50L234.46-13.50Q234.94-12.74 234.94-11.39L234.94-11.39L234.94-11.39Q234.94-8.83 233.73-7.42L233.73-7.42L233.73-7.42Q230.98-4.03 227.81-1.86L227.81-1.86L227.81-1.86Q224.64 0.32 220.61 0.32L220.61 0.32L220.61 0.32Q217.34 0.32 215.68-1.57L215.68-1.57L215.68-1.57Q214.02-3.46 214.02-7.04L214.02-7.04L214.02-7.04Q214.02-8.83 214.91-13.44L214.91-13.44L214.91-13.44Q215.74-17.47 215.74-19.01L215.74-19.01L215.74-19.01Q215.74-20.03 215.04-20.03L215.04-20.03L215.04-20.03Q214.21-20.03 212.70-17.89L212.70-17.89L212.70-17.89Q211.20-15.74 209.63-12.22L209.63-12.22L209.63-12.22Q208.06-8.70 207.10-4.80L207.10-4.80L207.10-4.80Q206.40-1.79 205.47-0.74L205.47-0.74L205.47-0.74Q204.54 0.32 202.56 0.32L202.56 0.32ZM237.63 0.32L237.63 0.32Q233.66 0.32 231.30-2.56L231.30-2.56L231.30-2.56Q228.93-5.44 228.93-10.11L228.93-10.11L228.93-10.11Q228.93-15.23 231.30-19.81L231.30-19.81L231.30-19.81Q233.66-24.38 237.60-27.17L237.60-27.17L237.60-27.17Q241.54-29.95 245.95-29.95L245.95-29.95L245.95-29.95Q247.36-29.95 247.84-29.41L247.84-29.41L247.84-29.41Q248.32-28.86 248.64-27.46L248.64-27.46L248.64-27.46Q249.98-27.71 251.46-27.71L251.46-27.71L251.46-27.71Q254.59-27.71 254.59-25.47L254.59-25.47L254.59-25.47Q254.59-24.13 253.63-19.07L253.63-19.07L253.63-19.07Q252.16-11.71 252.16-8.83L252.16-8.83L252.16-8.83Q252.16-7.87 252.64-7.30L252.64-7.30L252.64-7.30Q253.12-6.72 253.89-6.72L253.89-6.72L253.89-6.72Q255.10-6.72 256.83-8.29L256.83-8.29L256.83-8.29Q258.56-9.86 261.50-13.38L261.50-13.38L261.50-13.38Q262.27-14.27 263.23-14.27L263.23-14.27L263.23-14.27Q264.06-14.27 264.54-13.50L264.54-13.50L264.54-13.50Q265.02-12.74 265.02-11.39L265.02-11.39L265.02-11.39Q265.02-8.83 263.81-7.42L263.81-7.42L263.81-7.42Q261.18-4.16 258.24-1.92L258.24-1.92L258.24-1.92Q255.30 0.32 252.54 0.32L252.54 0.32L252.54 0.32Q250.43 0.32 248.67-1.12L248.67-1.12L248.67-1.12Q246.91-2.56 246.02-5.06L246.02-5.06L246.02-5.06Q242.69 0.32 237.63 0.32L237.63 0.32ZM239.94-6.14L239.94-6.14Q241.34-6.14 242.62-7.81L242.62-7.81L242.62-7.81Q243.90-9.47 244.48-12.22L244.48-12.22L246.85-24L246.85-24Q244.16-23.94 241.89-21.98L241.89-21.98L241.89-21.98Q239.62-20.03 238.27-16.83L238.27-16.83L238.27-16.83Q236.93-13.63 236.93-10.05L236.93-10.05L236.93-10.05Q236.93-8.06 237.73-7.10L237.73-7.10L237.73-7.10Q238.53-6.14 239.94-6.14L239.94-6.14Z" fill="url(#editing-gradient-gradient)"></path></g></g><style>text {
  font-size: 64px;
  font-family: Arial Black;
  dominant-baseline: central;
  text-anchor: middle;
}</style></svg>