<svg width="785.2800048828125px" height="357.239990234375px" xmlns="http://www.w3.org/2000/svg" viewBox="-142.64000244140624 -103.6199951171875 785.2800048828125 357.239990234375" style="background: rgba(0, 0, 0, 0) none repeat scroll 0% 0%;" preserveAspectRatio="xMidYMid"><defs><linearGradient id="editing-gradient-gradient" x1="0" x2="1" y1="0.5" y2="0.5" gradientUnits="objectBoundingBox"><stop offset="0" stop-color="#1ec677"/><stop offset="1" stop-color="#07da77"/></linearGradient></defs><g><g transform="translate(-40.24116264283657, 141.14999771118164)"><path d="M32.48 0.70L32.48 0.70Q27.30 0.70 25.06-1.61L25.06-1.61L25.06-1.61Q22.82-3.92 22.82-10.36L22.82-10.36L22.82-10.36Q22.82-14.70 23.73-21.49L23.73-21.49L23.73-21.49Q24.64-28.28 26.74-40.18L26.74-40.18L26.74-40.18Q30.38-62.16 32.48-78.26L32.48-78.26L32.48-78.26Q33.74-88.34 33.74-95.06L33.74-95.06L33.74-95.06Q33.74-101.36 29.12-101.36L29.12-101.36L29.12-101.36Q25.48-101.36 20.37-97.65L20.37-97.65L20.37-97.65Q15.26-93.94 9.10-85.82L9.10-85.82L9.10-85.82Q7.14-83.16 4.76-83.16L4.76-83.16L4.76-83.16Q2.80-83.16 1.33-85.05L1.33-85.05L1.33-85.05Q-0.14-86.94-0.14-89.32L-0.14-89.32L-0.14-89.32Q-0.14-91.56 0.77-93.87L0.77-93.87L0.77-93.87Q1.68-96.18 3.78-99.12L3.78-99.12L3.78-99.12Q10.50-108.50 18.76-113.61L18.76-113.61L18.76-113.61Q27.02-118.72 35.28-118.72L35.28-118.72L35.28-118.72Q42.98-118.72 47.11-113.82L47.11-113.82L47.11-113.82Q51.24-108.92 51.24-99.54L51.24-99.54L51.24-99.54Q51.24-95.76 50.54-90.65L50.54-90.65L50.54-90.65Q49.84-85.54 49.28-82.32L49.28-82.32L49.28-82.32Q48.72-79.10 48.44-77.84L48.44-77.84L48.44-77.84Q56.42-100.66 66.36-109.69L66.36-109.69L66.36-109.69Q76.30-118.72 88.20-118.72L88.20-118.72L88.20-118.72Q97.30-118.72 102.55-112.28L102.55-112.28L102.55-112.28Q107.80-105.84 107.80-94.08L107.80-94.08L107.80-94.08Q107.80-89.46 106.54-82.60L106.54-82.60L106.54-82.60Q113.54-101.92 122.92-110.32L122.92-110.32L122.92-110.32Q132.30-118.72 144.48-118.72L144.48-118.72L144.48-118.72Q154.28-118.72 159.53-112.42L159.53-112.42L159.53-112.42Q164.78-106.12 164.78-94.78L164.78-94.78L164.78-94.78Q164.78-88.62 162.96-79.80L162.96-79.80L154.42-39.76L154.42-39.76Q153.02-32.76 153.02-27.72L153.02-27.72L153.02-27.72Q153.02-21.84 155.75-18.90L155.75-18.90L155.75-18.90Q158.48-15.96 163.38-15.96L163.38-15.96L163.38-15.96Q168.00-15.96 172.41-19.04L172.41-19.04L172.41-19.04Q176.82-22.12 182.84-29.26L182.84-29.26L182.84-29.26Q184.52-31.22 186.62-31.22L186.62-31.22L186.62-31.22Q188.44-31.22 189.49-29.54L189.49-29.54L189.49-29.54Q190.54-27.86 190.54-24.92L190.54-24.92L190.54-24.92Q190.54-19.46 187.88-16.24L187.88-16.24L187.88-16.24Q180.60-7.42 173.46-3.36L173.46-3.36L173.46-3.36Q166.32 0.70 158.48 0.70L158.48 0.70L158.48 0.70Q146.58 0.70 139.86-6.37L139.86-6.37L139.86-6.37Q133.14-13.44 133.14-25.34L133.14-25.34L133.14-25.34Q133.14-33.60 136.50-49.28L136.50-49.28L142.10-74.90L142.10-74.90Q142.38-76.16 143.08-79.38L143.08-79.38L143.08-79.38Q143.78-82.60 144.20-85.47L144.20-85.47L144.20-85.47Q144.62-88.34 144.62-91.14L144.62-91.14L144.62-91.14Q144.62-96.04 142.73-98.49L142.73-98.49L142.73-98.49Q140.84-100.94 137.34-100.94L137.34-100.94L137.34-100.94Q130.76-100.94 123.55-92.47L123.55-92.47L123.55-92.47Q116.34-84.00 109.83-64.40L109.83-64.40L109.83-64.40Q103.32-44.80 99.26-13.44L99.26-13.44L99.26-13.44Q98.28-5.04 95.83-2.17L95.83-2.17L95.83-2.17Q93.38 0.70 87.92 0.70L87.92 0.70L87.92 0.70Q83.16 0.70 80.99-1.54L80.99-1.54L80.99-1.54Q78.82-3.78 78.82-9.94L78.82-9.94L78.82-9.94Q78.82-15.68 80.36-24.99L80.36-24.99L80.36-24.99Q81.90-34.30 84.28-46.90L84.28-46.90L84.28-46.90Q90.72-80.78 90.72-90.58L90.72-90.58L90.72-90.58Q90.72-95.90 88.69-98.42L88.69-98.42L88.69-98.42Q86.66-100.94 82.60-100.94L82.60-100.94L82.60-100.94Q75.74-100.94 68.46-93.17L68.46-93.17L68.46-93.17Q61.18-85.40 54.25-65.59L54.25-65.59L54.25-65.59Q47.32-45.78 42.70-12.04L42.70-12.04L42.70-12.04Q41.72-4.90 39.83-2.10L39.83-2.10L39.83-2.10Q37.94 0.70 32.48 0.70L32.48 0.70ZM250.60-42.98L250.60-42.98Q252.42-42.98 253.40-41.16L253.40-41.16L253.40-41.16Q254.38-39.34 254.38-36.54L254.38-36.54L254.38-36.54Q254.38-29.82 250.32-28.56L250.32-28.56L250.32-28.56Q241.92-25.62 231.84-25.20L231.84-25.20L231.84-25.20Q229.18-13.44 221.34-6.37L221.34-6.37L221.34-6.37Q213.50 0.70 203.56 0.70L203.56 0.70L203.56 0.70Q195.16 0.70 189.21-3.36L189.21-3.36L189.21-3.36Q183.26-7.42 180.18-14.14L180.18-14.14L180.18-14.14Q177.10-20.86 177.10-28.70L177.10-28.70L177.10-28.70Q177.10-39.34 181.16-47.67L181.16-47.67L181.16-47.67Q185.22-56.00 192.36-60.69L192.36-60.69L192.36-60.69Q199.50-65.38 208.18-65.38L208.18-65.38L208.18-65.38Q218.82-65.38 225.33-58.03L225.33-58.03L225.33-58.03Q231.84-50.68 232.96-39.90L232.96-39.90L232.96-39.90Q239.54-40.32 248.64-42.70L248.64-42.70L248.64-42.70Q249.76-42.98 250.60-42.98L250.60-42.98ZM204.68-14.14L204.68-14.14Q209.16-14.14 212.45-17.78L212.45-17.78L212.45-17.78Q215.74-21.42 216.86-28.28L216.86-28.28L216.86-28.28Q212.52-31.22 210.21-35.98L210.21-35.98L210.21-35.98Q207.90-40.74 207.90-46.06L207.90-46.06L207.90-46.06Q207.90-48.30 208.32-50.54L208.32-50.54L207.62-50.54L207.62-50.54Q202.02-50.54 198.31-45.15L198.31-45.15L198.31-45.15Q194.60-39.76 194.60-29.96L194.60-29.96L194.60-29.96Q194.60-22.26 197.61-18.20L197.61-18.20L197.61-18.20Q200.62-14.14 204.68-14.14L204.68-14.14ZM321.86-31.22L321.86-31.22Q323.68-31.22 324.73-29.54L324.73-29.54L324.73-29.54Q325.78-27.86 325.78-24.92L325.78-24.92L325.78-24.92Q325.78-19.32 323.12-16.24L323.12-16.24L323.12-16.24Q317.38-9.24 310.52-4.27L310.52-4.27L310.52-4.27Q303.66 0.70 296.94 0.70L296.94 0.70L296.94 0.70Q286.30 0.70 280.70-11.76L280.70-11.76L280.70-11.76Q274.82-4.34 270.41-1.82L270.41-1.82L270.41-1.82Q266.00 0.70 260.12 0.70L260.12 0.70L260.12 0.70Q251.58 0.70 246.05-5.67L246.05-5.67L246.05-5.67Q240.52-12.04 240.52-22.26L240.52-22.26L240.52-22.26Q240.52-33.46 245.28-43.05L245.28-43.05L245.28-43.05Q250.04-52.64 258.37-58.73L258.37-58.73L258.37-58.73Q266.70-64.82 277.06-65.94L277.06-65.94L277.06-65.94Q279.72-93.10 287.21-112.35L287.21-112.35L287.21-112.35Q294.70-131.60 306.88-131.60L306.88-131.60L306.88-131.60Q312.90-131.60 316.89-126.14L316.89-126.14L316.89-126.14Q320.88-120.68 320.88-109.62L320.88-109.62L320.88-109.62Q320.88-93.94 313.18-72.94L313.18-72.94L313.18-72.94Q305.48-51.94 292.60-29.82L292.60-29.82L292.60-29.82Q293.16-21.70 295.05-18.20L295.05-18.20L295.05-18.20Q296.94-14.70 299.88-14.70L299.88-14.70L299.88-14.70Q303.66-14.70 307.58-18.06L307.58-18.06L307.58-18.06Q311.50-21.42 318.08-29.26L318.08-29.26L318.08-29.26Q319.76-31.22 321.86-31.22L321.86-31.22ZM305.34-117.88L305.34-117.88Q302.68-117.88 300.02-108.43L300.02-108.43L300.02-108.43Q297.36-98.98 295.47-83.72L295.47-83.72L295.47-83.72Q293.58-68.46 292.74-51.80L292.74-51.80L292.74-51.80Q308.42-85.96 308.42-106.68L308.42-106.68L308.42-106.68Q308.42-112.00 307.51-114.94L307.51-114.94L307.51-114.94Q306.60-117.88 305.34-117.88L305.34-117.88ZM265.02-13.44L265.02-13.44Q267.68-13.44 270.34-15.61L270.34-15.61L270.34-15.61Q273.00-17.78 277.06-23.66L277.06-23.66L277.06-23.66Q275.66-31.22 275.66-40.60L275.66-40.60L275.66-40.60Q275.66-43.96 275.94-51.52L275.94-51.52L275.94-51.52Q268.24-49.14 263.13-41.23L263.13-41.23L263.13-41.23Q258.02-33.32 258.02-23.66L258.02-23.66L258.02-23.66Q258.02-13.44 265.02-13.44L265.02-13.44ZM376.88-31.22L376.88-31.22Q378.70-31.22 379.75-29.54L379.75-29.54L379.75-29.54Q380.80-27.86 380.80-24.92L380.80-24.92L380.80-24.92Q380.80-19.32 378.14-16.24L378.14-16.24L378.14-16.24Q372.96-9.94 363.51-4.62L363.51-4.62L363.51-4.62Q354.06 0.70 343.28 0.70L343.28 0.70L343.28 0.70Q328.58 0.70 320.46-7.28L320.46-7.28L320.46-7.28Q312.34-15.26 312.34-29.12L312.34-29.12L312.34-29.12Q312.34-38.78 316.40-47.11L316.40-47.11L316.40-47.11Q320.46-55.44 327.67-60.34L327.67-60.34L327.67-60.34Q334.88-65.24 343.98-65.24L343.98-65.24L343.98-65.24Q352.10-65.24 357-60.41L357-60.41L357-60.41Q361.90-55.58 361.90-47.32L361.90-47.32L361.90-47.32Q361.90-37.66 354.97-30.73L354.97-30.73L354.97-30.73Q348.04-23.80 331.52-19.74L331.52-19.74L331.52-19.74Q335.02-13.30 344.82-13.30L344.82-13.30L344.82-13.30Q351.12-13.30 359.17-17.71L359.17-17.71L359.17-17.71Q367.22-22.12 373.10-29.26L373.10-29.26L373.10-29.26Q374.78-31.22 376.88-31.22L376.88-31.22ZM341.60-51.52L341.60-51.52Q336.42-51.52 332.85-45.50L332.85-45.50L332.85-45.50Q329.28-39.48 329.28-30.94L329.28-30.94L329.28-30.66L329.28-30.66Q337.54-32.62 342.30-36.54L342.30-36.54L342.30-36.54Q347.06-40.46 347.06-45.64L347.06-45.64L347.06-45.64Q347.06-48.30 345.59-49.91L345.59-49.91L345.59-49.91Q344.12-51.52 341.60-51.52L341.60-51.52ZM379.40 0.70L379.40 0.70Q374.08 0.70 371.91-4.90L371.91-4.90L371.91-4.90Q369.74-10.50 369.74-22.82L369.74-22.82L369.74-22.82Q369.74-41.02 374.92-57.40L374.92-57.40L374.92-57.40Q376.18-61.46 379.05-63.35L379.05-63.35L379.05-63.35Q381.92-65.24 387.10-65.24L387.10-65.24L387.10-65.24Q389.90-65.24 391.02-64.54L391.02-64.54L391.02-64.54Q392.14-63.84 392.14-61.88L392.14-61.88L392.14-61.88Q392.14-59.64 390.04-51.80L390.04-51.80L390.04-51.80Q388.64-46.20 387.80-42.00L387.80-42.00L387.80-42.00Q386.96-37.80 386.40-31.64L386.40-31.64L386.40-31.64Q391.02-43.68 396.76-51.24L396.76-51.24L396.76-51.24Q402.50-58.80 408.03-62.02L408.03-62.02L408.03-62.02Q413.56-65.24 418.18-65.24L418.18-65.24L418.18-65.24Q427.28-65.24 427.28-56.14L427.28-56.14L427.28-56.14Q427.28-54.32 426.02-47.32L426.02-47.32L426.02-47.32Q424.90-41.72 424.90-40.32L424.90-40.32L424.90-40.32Q424.90-35.42 428.40-35.42L428.40-35.42L428.40-35.42Q432.32-35.42 438.48-41.58L438.48-41.58L438.48-41.58Q440.30-43.40 442.26-43.40L442.26-43.40L442.26-43.40Q444.08-43.40 445.13-41.79L445.13-41.79L445.13-41.79Q446.18-40.18 446.18-37.52L446.18-37.52L446.18-37.52Q446.18-32.34 443.38-29.40L443.38-29.40L443.38-29.40Q439.46-25.34 434.21-22.47L434.21-22.47L434.21-22.47Q428.96-19.60 423.08-19.60L423.08-19.60L423.08-19.60Q415.66-19.60 411.81-23.38L411.81-23.38L411.81-23.38Q407.96-27.16 407.96-33.60L407.96-33.60L407.96-33.60Q407.96-35.70 408.38-37.80L408.38-37.80L408.38-37.80Q408.66-40.60 408.66-41.58L408.66-41.58L408.66-41.58Q408.66-43.82 407.12-43.82L407.12-43.82L407.12-43.82Q405.02-43.82 401.59-39.13L401.59-39.13L401.59-39.13Q398.16-34.44 394.80-26.74L394.80-26.74L394.80-26.74Q391.44-19.04 389.34-10.50L389.34-10.50L389.34-10.50Q387.80-3.92 385.77-1.61L385.77-1.61L385.77-1.61Q383.74 0.70 379.40 0.70L379.40 0.70ZM443.10 0.70L443.10 0.70Q437.78 0.70 435.61-4.90L435.61-4.90L435.61-4.90Q433.44-10.50 433.44-22.82L433.44-22.82L433.44-22.82Q433.44-41.02 438.62-57.40L438.62-57.40L438.62-57.40Q439.88-61.46 442.75-63.35L442.75-63.35L442.75-63.35Q445.62-65.24 450.80-65.24L450.80-65.24L450.80-65.24Q453.60-65.24 454.72-64.54L454.72-64.54L454.72-64.54Q455.84-63.84 455.84-61.88L455.84-61.88L455.84-61.88Q455.84-59.64 453.74-51.80L453.74-51.80L453.74-51.80Q452.34-46.20 451.50-42.00L451.50-42.00L451.50-42.00Q450.66-37.80 450.10-31.64L450.10-31.64L450.10-31.64Q454.72-43.68 460.46-51.24L460.46-51.24L460.46-51.24Q466.20-58.80 471.73-62.02L471.73-62.02L471.73-62.02Q477.26-65.24 481.88-65.24L481.88-65.24L481.88-65.24Q490.98-65.24 490.98-56.14L490.98-56.14L490.98-56.14Q490.98-50.68 487.90-36.40L487.90-36.40L487.90-36.40Q485.24-24.22 485.24-20.30L485.24-20.30L485.24-20.30Q485.24-14.70 489.30-14.70L489.30-14.70L489.30-14.70Q492.10-14.70 495.95-18.13L495.95-18.13L495.95-18.13Q499.80-21.56 506.24-29.26L506.24-29.26L506.24-29.26Q507.92-31.22 510.02-31.22L510.02-31.22L510.02-31.22Q511.84-31.22 512.89-29.54L512.89-29.54L512.89-29.54Q513.94-27.86 513.94-24.92L513.94-24.92L513.94-24.92Q513.94-19.32 511.28-16.24L511.28-16.24L511.28-16.24Q505.26-8.82 498.33-4.06L498.33-4.06L498.33-4.06Q491.40 0.70 482.58 0.70L482.58 0.70L482.58 0.70Q475.44 0.70 471.80-3.43L471.80-3.43L471.80-3.43Q468.16-7.56 468.16-15.40L468.16-15.40L468.16-15.40Q468.16-19.32 470.12-29.40L470.12-29.40L470.12-29.40Q471.94-38.22 471.94-41.58L471.94-41.58L471.94-41.58Q471.94-43.82 470.40-43.82L470.40-43.82L470.40-43.82Q468.58-43.82 465.29-39.13L465.29-39.13L465.29-39.13Q462-34.44 458.57-26.74L458.57-26.74L458.57-26.74Q455.14-19.04 453.04-10.50L453.04-10.50L453.04-10.50Q451.50-3.92 449.47-1.61L449.47-1.61L449.47-1.61Q447.44 0.70 443.10 0.70L443.10 0.70ZM519.82 0.70L519.82 0.70Q511.14 0.70 505.96-5.60L505.96-5.60L505.96-5.60Q500.78-11.90 500.78-22.12L500.78-22.12L500.78-22.12Q500.78-33.32 505.96-43.33L505.96-43.33L505.96-43.33Q511.14-53.34 519.75-59.43L519.75-59.43L519.75-59.43Q528.36-65.52 538.02-65.52L538.02-65.52L538.02-65.52Q541.10-65.52 542.15-64.33L542.15-64.33L542.15-64.33Q543.20-63.14 543.90-60.06L543.90-60.06L543.90-60.06Q546.84-60.62 550.06-60.62L550.06-60.62L550.06-60.62Q556.92-60.62 556.92-55.72L556.92-55.72L556.92-55.72Q556.92-52.78 554.82-41.72L554.82-41.72L554.82-41.72Q551.60-25.62 551.60-19.32L551.60-19.32L551.60-19.32Q551.60-17.22 552.65-15.96L552.65-15.96L552.65-15.96Q553.70-14.70 555.38-14.70L555.38-14.70L555.38-14.70Q558.04-14.70 561.82-18.13L561.82-18.13L561.82-18.13Q565.60-21.56 572.04-29.26L572.04-29.26L572.04-29.26Q573.72-31.22 575.82-31.22L575.82-31.22L575.82-31.22Q577.64-31.22 578.69-29.54L578.69-29.54L578.69-29.54Q579.74-27.86 579.74-24.92L579.74-24.92L579.74-24.92Q579.74-19.32 577.08-16.24L577.08-16.24L577.08-16.24Q571.34-9.10 564.90-4.20L564.90-4.20L564.90-4.20Q558.46 0.70 552.44 0.70L552.44 0.70L552.44 0.70Q547.82 0.70 543.97-2.45L543.97-2.45L543.97-2.45Q540.12-5.60 538.16-11.06L538.16-11.06L538.16-11.06Q530.88 0.70 519.82 0.70L519.82 0.70ZM524.86-13.44L524.86-13.44Q527.94-13.44 530.74-17.08L530.74-17.08L530.74-17.08Q533.54-20.72 534.80-26.74L534.80-26.74L539.98-52.50L539.98-52.50Q534.10-52.36 529.13-48.09L529.13-48.09L529.13-48.09Q524.16-43.82 521.22-36.82L521.22-36.82L521.22-36.82Q518.28-29.82 518.28-21.98L518.28-21.98L518.28-21.98Q518.28-17.64 520.03-15.54L520.03-15.54L520.03-15.54Q521.78-13.44 524.86-13.44L524.86-13.44Z" fill="url(#editing-gradient-gradient)"/></g></g><style>text {
  font-size: 64px;
  font-family: Arial Black;
  dominant-baseline: central;
  text-anchor: middle;
}</style></svg>